<svg xmlns="http://www.w3.org/2000/svg" xmlns:xlink="http://www.w3.org/1999/xlink" viewBox="0 0 268 250" preserveAspectRatio="xMidYMid" style="display: block; shape-rendering: auto; background: rgba(0, 0, 0, 0);" width="268" height="250"><style type="text/css">
  .ld-text text {
    text-anchor: middle;
    dominant-baseline: middle;
    font-size: 23px;
    opacity: 0;
    user-select: none;
    pointer-events: none;
  }
</style>
<g style="transform-origin:134px 125px;transform:scale(1)" class="ld-text">
<g transform="translate(134,125)">
  <g transform="scale(0.2875) translate(0,0)"><g class="path" style="opacity: 0; transform-origin: -376.04px -0.03px; transform: matrix3d(0, 0, 0, 0, 0, 0, 0, 0, 0, 0, 0, 0, 0, 0, 0, 1); animation: 1s linear 0s 1 normal forwards running animate-rab7icdo9ee; transform-box: view-box;"><path d="M21.92 56.58L21.92 56.58Q17.36 56.58 13.96 56.34Q10.56 56.10 7.20 55.78L7.20 55.78L7.20 0.10Q10.96-0.30 14.56-0.50Q18.16-0.70 22.80-0.70L22.80-0.70Q30-0.70 35.24 1.54Q40.48 3.78 43.88 7.70Q47.28 11.62 48.92 16.78Q50.56 21.94 50.56 27.86L50.56 27.86Q50.56 33.70 48.88 38.90Q47.20 44.10 43.72 48.06Q40.24 52.02 34.84 54.30Q29.44 56.58 21.92 56.58 zM22.16 49.94L22.16 49.94Q29.36 49.94 33.92 47.14Q38.48 44.34 40.64 39.34Q42.80 34.34 42.80 27.86L42.80 27.86Q42.80 22.10 40.64 17.06Q38.48 12.02 34 8.94Q29.52 5.86 22.56 5.86L22.56 5.86Q20.24 5.86 18.32 5.98Q16.40 6.10 14.80 6.26L14.80 6.26L14.80 49.54Q16.48 49.78 18.32 49.86Q20.16 49.94 22.16 49.94" style="fill: rgb(250, 253, 255);" transform="translate(-404.920,-27.972)"></path></g><g class="path" style="opacity: 0; transform-origin: -339.36px -0.03px; transform: matrix3d(0, 0, 0, 0, 0, 0, 0, 0, 0, 0, 0, 0, 0, 0, 0, 1); animation: 1s linear 0.0388235s 1 normal forwards running animate-rab7icdo9ee; transform-box: view-box;"><path d="M69.36 55.94L61.76 55.94L61.76-0.06L69.36-0.06L69.36 55.94" style="fill: rgb(250, 253, 255);" transform="translate(-404.920,-27.972)"></path></g><g class="path" style="opacity: 0; transform-origin: -302px -0.03px; transform: matrix3d(0, 0, 0, 0, 0, 0, 0, 0, 0, 0, 0, 0, 0, 0, 0, 1); animation: 1s linear 0.0776471s 1 normal forwards running animate-rab7icdo9ee; transform-box: view-box;"><path d="M102.88 56.90L102.88 56.90Q96.40 56.90 91.36 53.54Q86.32 50.18 83.44 43.98Q80.56 37.78 80.56 29.38L80.56 29.38Q80.56 20.42 83.60 13.58Q86.64 6.74 92.36 2.86Q98.08-1.02 106.16-1.02L106.16-1.02Q111.36-1.02 115.44 0.26Q119.52 1.54 123.12 3.54L123.12 3.54L120.32 9.86Q116.96 8.02 113.48 6.82Q110 5.62 105.76 5.62L105.76 5.62Q100.72 5.62 96.80 8.30Q92.88 10.98 90.60 16.18Q88.32 21.38 88.32 28.90L88.32 28.90Q88.32 35.62 90.40 40.38Q92.48 45.14 96.16 47.70Q99.84 50.26 104.64 50.26L104.64 50.26Q109.12 50.26 112.60 48.38Q116.08 46.50 118.08 44.50L118.08 44.50L118.08 32.26L106.48 32.26L106.48 26.26L125.28 26.26L125.28 55.94L118.56 55.94L118.56 50.34Q115.76 52.82 111.76 54.86Q107.76 56.90 102.88 56.90" style="fill: rgb(250, 253, 255);" transform="translate(-404.920,-27.972)"></path></g><g class="path" style="opacity: 0; transform-origin: -263.44px -0.03px; transform: matrix3d(0, 0, 0, 0, 0, 0, 0, 0, 0, 0, 0, 0, 0, 0, 0, 1); animation: 1s linear 0.116471s 1 normal forwards running animate-rab7icdo9ee; transform-box: view-box;"><path d="M145.28 55.94L137.68 55.94L137.68-0.06L145.28-0.06L145.28 55.94" style="fill: rgb(250, 253, 255);" transform="translate(-404.920,-27.972)"></path></g><g class="path" style="opacity: 0; transform-origin: -230.64px -0.03px; transform: matrix3d(0, 0, 0, 0, 0, 0, 0, 0, 0, 0, 0, 0, 0, 0, 0, 1); animation: 1s linear 0.155294s 1 normal forwards running animate-rab7icdo9ee; transform-box: view-box;"><path d="M178.08 55.94L170.48 55.94L170.48 6.66L153.28 6.66L153.28-0.06L195.28-0.06L195.28 6.66L178.08 6.66L178.08 55.94" style="fill: rgb(250, 253, 255);" transform="translate(-404.920,-27.972)"></path></g><g class="path" style="opacity: 0; transform-origin: -186.92px 0.37px; transform: matrix3d(0, 0, 0, 0, 0, 0, 0, 0, 0, 0, 0, 0, 0, 0, 0, 1); animation: 1s linear 0.194118s 1 normal forwards running animate-rab7icdo9ee; transform-box: view-box;"><path d="M243.92 53.94L236.96 56.74L230.72 40.74L204.80 40.74L198.56 56.58L192.08 53.94L214-0.06L222.32-0.06L243.92 53.94 zM217.76 7.46L207.20 34.34L228.24 34.34L217.76 7.46" style="fill: rgb(250, 253, 255);" transform="translate(-404.920,-27.972)"></path></g><g class="path" style="opacity: 0; transform-origin: -136.36px -0.03px; transform: matrix3d(0, 0, 0, 0, 0, 0, 0, 0, 0, 0, 0, 0, 0, 0, 0, 1); animation: 1s linear 0.232941s 1 normal forwards running animate-rab7icdo9ee; transform-box: view-box;"><path d="M285.20 55.94L251.92 55.94L251.92-0.06L259.52-0.06L259.52 49.14L285.20 49.14L285.20 55.94" style="fill: rgb(250, 253, 255);" transform="translate(-404.920,-27.972)"></path></g><g class="path" style="opacity: 0; transform-origin: -71.48px -0.03px; transform: matrix3d(0, 0, 0, 0, 0, 0, 0, 0, 0, 0, 0, 0, 0, 0, 0, 1); animation: 1s linear 0.271765s 1 normal forwards running animate-rab7icdo9ee; transform-box: view-box;"><path d="M350.08 55.94L316.80 55.94L316.80-0.06L324.40-0.06L324.40 49.14L350.08 49.14L350.08 55.94" style="fill: rgb(250, 253, 255);" transform="translate(-404.920,-27.972)"></path></g><g class="path" style="opacity: 0; transform-origin: -30.44px -0.03px; transform: matrix3d(0, 0, 0, 0, 0, 0, 0, 0, 0, 0, 0, 0, 0, 0, 0, 1); animation: 1s linear 0.310588s 1 normal forwards running animate-rab7icdo9ee; transform-box: view-box;"><path d="M391.28 55.94L357.68 55.94L357.68-0.06L391.28-0.06L391.28 6.50L365.28 6.50L365.28 23.54L387.68 23.54L387.68 29.94L365.28 29.94L365.28 49.38L391.28 49.38L391.28 55.94" style="fill: rgb(250, 253, 255);" transform="translate(-404.920,-27.972)"></path></g><g class="path" style="opacity: 0; transform-origin: 11.88px -0.03px; transform: matrix3d(0, 0, 0, 0, 0, 0, 0, 0, 0, 0, 0, 0, 0, 0, 0, 1); animation: 1s linear 0.349412s 1 normal forwards running animate-rab7icdo9ee; transform-box: view-box;"><path d="M416 56.90L416 56.90Q410.16 56.90 405.36 55.34Q400.56 53.78 397.28 51.22L397.28 51.22L401.12 44.82Q404 47.22 407.60 48.74Q411.20 50.26 416 50.26L416 50.26Q421.76 50.26 425.12 47.86Q428.48 45.46 428.48 41.38L428.48 41.38Q428.48 39.06 427.52 37.26Q426.56 35.46 423.80 33.74Q421.04 32.02 415.68 30.02L415.68 30.02Q409.92 27.78 406.48 25.50Q403.04 23.22 401.56 20.30Q400.08 17.38 400.08 13.38L400.08 13.38Q400.08 9.38 402.28 6.14Q404.48 2.90 408.76 0.94Q413.04-1.02 419.12-1.02L419.12-1.02Q424.08-1.02 428.04-0.02Q432 0.98 435.76 2.82L435.76 2.82L432.96 9.30Q430.24 7.70 426.60 6.62Q422.96 5.54 418.96 5.54L418.96 5.54Q413.68 5.54 410.64 7.62Q407.60 9.70 407.60 12.98L407.60 12.98Q407.60 15.06 408.48 16.66Q409.36 18.26 411.96 19.78Q414.56 21.30 419.76 23.22L419.76 23.22Q426 25.54 429.64 28.10Q433.28 30.66 434.80 33.66Q436.32 36.66 436.32 40.50L436.32 40.50Q436.32 45.70 433.72 49.38Q431.12 53.06 426.52 54.98Q421.92 56.90 416 56.90" style="fill: rgb(250, 253, 255);" transform="translate(-404.920,-27.972)"></path></g><g class="path" style="opacity: 0; transform-origin: 57.32px -0.03px; transform: matrix3d(0, 0, 0, 0, 0, 0, 0, 0, 0, 0, 0, 0, 0, 0, 0, 1); animation: 1s linear 0.388235s 1 normal forwards running animate-rab7icdo9ee; transform-box: view-box;"><path d="M461.44 56.90L461.44 56.90Q455.60 56.90 450.80 55.34Q446 53.78 442.72 51.22L442.72 51.22L446.56 44.82Q449.44 47.22 453.04 48.74Q456.64 50.26 461.44 50.26L461.44 50.26Q467.20 50.26 470.56 47.86Q473.92 45.46 473.92 41.38L473.92 41.38Q473.92 39.06 472.96 37.26Q472 35.46 469.24 33.74Q466.48 32.02 461.12 30.02L461.12 30.02Q455.36 27.78 451.92 25.50Q448.48 23.22 447 20.30Q445.52 17.38 445.52 13.38L445.52 13.38Q445.52 9.38 447.72 6.14Q449.92 2.90 454.20 0.94Q458.48-1.02 464.56-1.02L464.56-1.02Q469.52-1.02 473.48-0.02Q477.44 0.98 481.20 2.82L481.20 2.82L478.40 9.30Q475.68 7.70 472.04 6.62Q468.40 5.54 464.40 5.54L464.40 5.54Q459.12 5.54 456.08 7.62Q453.04 9.70 453.04 12.98L453.04 12.98Q453.04 15.06 453.92 16.66Q454.80 18.26 457.40 19.78Q460 21.30 465.20 23.22L465.20 23.22Q471.44 25.54 475.08 28.10Q478.72 30.66 480.24 33.66Q481.76 36.66 481.76 40.50L481.76 40.50Q481.76 45.70 479.16 49.38Q476.56 53.06 471.96 54.98Q467.36 56.90 461.44 56.90" style="fill: rgb(250, 253, 255);" transform="translate(-404.920,-27.972)"></path></g><g class="path" style="opacity: 0; transform-origin: 111.28px -0.03px; transform: matrix3d(0, 0, 0, 0, 0, 0, 0, 0, 0, 0, 0, 0, 0, 0, 0, 1); animation: 1s linear 0.427059s 1 normal forwards running animate-rab7icdo9ee; transform-box: view-box;"><path d="M516.16 56.90L516.16 56.90Q509.92 56.90 505.04 54.62Q500.16 52.34 496.76 48.38Q493.36 44.42 491.56 39.14Q489.76 33.86 489.76 27.86L489.76 27.86Q489.76 19.62 492.92 13.10Q496.08 6.58 502 2.78Q507.92-1.02 516.16-1.02L516.16-1.02Q522.32-1.02 527.24 1.22Q532.16 3.46 535.60 7.46Q539.04 11.46 540.84 16.66Q542.64 21.86 542.64 27.86L542.64 27.86Q542.64 33.86 540.84 39.14Q539.04 44.42 535.60 48.38Q532.16 52.34 527.28 54.62Q522.40 56.90 516.16 56.90 zM516.16 50.34L516.16 50.34Q522.32 50.34 526.48 47.38Q530.64 44.42 532.76 39.34Q534.88 34.26 534.88 27.86L534.88 27.86Q534.88 23.54 533.60 19.54Q532.32 15.54 529.92 12.38Q527.52 9.22 524.04 7.38Q520.56 5.54 516.16 5.54L516.16 5.54Q510.32 5.54 506.12 8.50Q501.92 11.46 499.72 16.50Q497.52 21.54 497.52 27.86L497.52 27.86Q497.52 32.18 498.76 36.22Q500 40.26 502.40 43.46Q504.80 46.66 508.28 48.50Q511.76 50.34 516.16 50.34" style="fill: rgb(250, 253, 255);" transform="translate(-404.920,-27.972)"></path></g><g class="path" style="opacity: 0; transform-origin: 169.92px -0.03px; transform: matrix3d(0, 0, 0, 0, 0, 0, 0, 0, 0, 0, 0, 0, 0, 0, 0, 1); animation: 1s linear 0.465882s 1 normal forwards running animate-rab7icdo9ee; transform-box: view-box;"><path d="M561.04 55.94L553.84 55.94L553.84-0.06L563.92-0.06L588.64 46.50L588.64-0.06L595.84-0.06L595.84 55.94L585.92 55.94L561.04 9.70L561.04 55.94" style="fill: rgb(250, 253, 255);" transform="translate(-404.920,-27.972)"></path></g><g class="path" style="opacity: 0; transform-origin: 247.96px -0.35px; transform: matrix3d(0, 0, 0, 0, 0, 0, 0, 0, 0, 0, 0, 0, 0, 0, 0, 1); animation: 1s linear 0.504706s 1 normal forwards running animate-rab7icdo9ee; transform-box: view-box;"><path d="M641.84 55.94L634.24 55.94L634.24 0.10Q637.52-0.30 641.48-0.50Q645.44-0.70 649.68-0.70L649.68-0.70Q656.64-0.70 661.52 1.50Q666.40 3.70 668.96 7.54Q671.52 11.38 671.52 16.34L671.52 16.34Q671.52 22.34 668.56 26.50Q665.60 30.66 660.32 32.86Q655.04 35.06 648.08 35.06L648.08 35.06Q644.72 35.06 641.84 34.82L641.84 34.82L641.84 55.94 zM649.04 28.74L649.04 28.74Q656.16 28.74 660.08 25.54Q664 22.34 664 16.98L664 16.98Q664 11.78 660.24 8.74Q656.48 5.70 649.52 5.70L649.52 5.70Q647.36 5.70 645.44 5.78Q643.52 5.86 641.84 6.02L641.84 6.02L641.84 28.34Q643.12 28.50 644.96 28.62Q646.80 28.74 649.04 28.74" style="fill: rgb(250, 253, 255);" transform="translate(-404.920,-27.972)"></path></g><g class="path" style="opacity: 0; transform-origin: 292.44px -0.03px; transform: matrix3d(0, 0, 0, 0, 0, 0, 0, 0, 0, 0, 0, 0, 0, 0, 0, 1); animation: 1s linear 0.543529s 1 normal forwards running animate-rab7icdo9ee; transform-box: view-box;"><path d="M714 55.94L680.72 55.94L680.72-0.06L688.32-0.06L688.32 49.14L714 49.14L714 55.94" style="fill: rgb(250, 253, 255);" transform="translate(-404.920,-27.972)"></path></g><g class="path" style="opacity: 0; transform-origin: 336.2px 0.37px; transform: matrix3d(0, 0, 0, 0, 0, 0, 0, 0, 0, 0, 0, 0, 0, 0, 0, 1); animation: 1s linear 0.582353s 1 normal forwards running animate-rab7icdo9ee; transform-box: view-box;"><path d="M767.04 53.94L760.08 56.74L753.84 40.74L727.92 40.74L721.68 56.58L715.20 53.94L737.12-0.06L745.44-0.06L767.04 53.94 zM740.88 7.46L730.32 34.34L751.36 34.34L740.88 7.46" style="fill: rgb(250, 253, 255);" transform="translate(-404.920,-27.972)"></path></g><g class="path" style="opacity: 0; transform-origin: 391.12px -0.03px; transform: matrix3d(0, 0, 0, 0, 0, 0, 0, 0, 0, 0, 0, 0, 0, 0, 0, 1); animation: 1s linear 0.621176s 1 normal forwards running animate-rab7icdo9ee; transform-box: view-box;"><path d="M782.24 55.94L775.04 55.94L775.04-0.06L785.12-0.06L809.84 46.50L809.84-0.06L817.04-0.06L817.04 55.94L807.12 55.94L782.24 9.70L782.24 55.94" style="fill: rgb(250, 253, 255);" transform="translate(-404.920,-27.972)"></path></g></g><text dy="0.35em" fill="#fafdff" font-family="ABeeZee" font-size="23">DIGITAL LESSON PLAN</text>
</g>
</g><style type="text/css">@keyframes animate-rab7icdo9ee { 0.00% {animation-timing-function: cubic-bezier(0.68,0.62,0.35,0.29);transform: translate(0.00px,0.00px) rotate(0.00deg) scale(0.00, 0.00) skew(0deg, 0.00deg) ;opacity: 0.00;}4.00% {transform: translate(0.00px,0.00px) rotate(0.00deg) scale(0.47, 0.47) ;opacity: 0.40;}6.00% {transform: translate(0.00px,0.00px) rotate(0.00deg) scale(0.73, 0.73) ;opacity: 0.60;}8.00% {transform: translate(0.00px,0.00px) rotate(0.00deg) scale(0.95, 0.95) ;opacity: 0.80;}10.00% {transform: translate(0.00px,0.00px) rotate(0.00deg) scale(1.09, 1.09) ;opacity: 1.00;}12.00% {transform: translate(0.00px,0.00px) rotate(0.00deg) scale(1.15, 1.15) ;opacity: 1.00;}16.00% {transform: translate(0.00px,0.00px) rotate(0.00deg) scale(1.03, 1.03) ;opacity: 1.00;}18.00% {transform: translate(0.00px,0.00px) rotate(0.00deg) scale(0.90, 0.90) ;opacity: 1.00;}22.00% {transform: translate(0.00px,0.00px) rotate(0.00deg) scale(0.67, 0.67) ;opacity: 1.00;}24.00% {animation-timing-function: cubic-bezier(0.79,0.32,0.40,0.05);transform: translate(0.00px,0.00px) rotate(0.00deg) scale(0.63, 0.63) ;opacity: 1.00;}30.00% {transform: translate(0.00px,0.00px) rotate(0.00deg) scale(0.82, 0.82) ;opacity: 1.00;}32.00% {transform: translate(0.00px,0.00px) rotate(0.00deg) scale(0.93, 0.93) ;opacity: 1.00;}36.00% {transform: translate(0.00px,0.00px) rotate(0.00deg) scale(1.07, 1.07) ;opacity: 1.00;}38.00% {transform: translate(0.00px,0.00px) rotate(0.00deg) scale(1.08, 1.08) ;opacity: 1.00;}42.00% {transform: translate(0.00px,0.00px) rotate(0.00deg) scale(0.99, 0.99) ;opacity: 1.00;}44.00% {transform: translate(0.00px,0.00px) rotate(0.00deg) scale(0.91, 0.91) ;opacity: 1.00;}48.00% {transform: translate(0.00px,0.00px) rotate(0.00deg) scale(0.81, 0.81) ;opacity: 1.00;}50.00% {transform: translate(0.00px,0.00px) rotate(0.00deg) scale(0.80, 0.80) ;opacity: 1.00;}54.00% {transform: translate(0.00px,0.00px) rotate(0.00deg) scale(0.88, 0.88) ;opacity: 1.00;}56.00% {transform: translate(0.00px,0.00px) rotate(0.00deg) scale(0.94, 0.94) ;opacity: 1.00;}60.00% {transform: translate(0.00px,0.00px) rotate(0.00deg) scale(1.03, 1.03) ;opacity: 1.00;}62.00% {transform: translate(0.00px,0.00px) rotate(0.00deg) scale(1.04, 1.04) ;opacity: 1.00;}66.00% {transform: translate(0.00px,0.00px) rotate(0.00deg) scale(1.01, 1.01) ;opacity: 1.00;}68.00% {transform: translate(0.00px,0.00px) rotate(0.00deg) scale(0.98, 0.98) ;opacity: 1.00;}72.00% {transform: translate(0.00px,0.00px) rotate(0.00deg) scale(0.92, 0.92) ;opacity: 1.00;}74.00% {transform: translate(0.00px,0.00px) rotate(0.00deg) scale(0.91, 0.91) ;opacity: 1.00;}78.00% {transform: translate(0.00px,0.00px) rotate(0.00deg) scale(0.94, 0.94) ;opacity: 1.00;}80.00% {transform: translate(0.00px,0.00px) rotate(0.00deg) scale(0.96, 0.96) ;opacity: 1.00;}84.00% {transform: translate(0.00px,0.00px) rotate(0.00deg) scale(1.00, 1.00) ;opacity: 1.00;}86.00% {transform: translate(0.00px,0.00px) rotate(0.00deg) scale(1.01, 1.01) ;opacity: 1.00;}90.00% {transform: translate(0.00px,0.00px) rotate(0.00deg) scale(1.01, 1.01) ;opacity: 1.00;}92.00% {animation-timing-function: cubic-bezier(0.60,0.94,0.21,0.66);transform: translate(0.00px,0.00px) rotate(0.00deg) scale(1.00, 1.00) ;opacity: 1.00;}96.00% {transform: translate(0.00px,0.00px) rotate(0.00deg) scale(0.99, 0.99) ;opacity: 1.00;}100.00% {transform: translate(0.00px,0.00px) rotate(0.00deg) scale(1.00, 1.00) ;opacity: 1.00;} }</style><!-- [ldio] generated by https://loading.io --></svg>